<?xml version="1.0" encoding="utf-8"?>
<!-- Generator: Adobe Illustrator 27.1.1, SVG Export Plug-In . SVG Version: 6.00 Build 0)  -->
<svg version="1.1" id="Layer_1" xmlns="http://www.w3.org/2000/svg" xmlns:xlink="http://www.w3.org/1999/xlink" x="0px" y="0px"
	 viewBox="0 0 30 30" style="enable-background:new 0 0 30 30;" xml:space="preserve">
<style type="text/css">
	.st0{fill:#FFFFFF;}
</style>
<g>
	<path class="st0" d="M24.3,25.32c-0.07,0-0.2-0.02-0.31-0.13L5.28,5.51C5.12,5.34,5.13,5.07,5.3,4.91L5.41,4.8
		C5.52,4.7,5.64,4.68,5.7,4.68c0.07,0,0.2,0.02,0.31,0.13L24.72,24.5c0.16,0.17,0.15,0.44-0.01,0.6l-0.12,0.11
		C24.49,25.3,24.36,25.32,24.3,25.32z"/>
	<path d="M5.7,3.68c-0.35,0-0.7,0.13-0.98,0.39L4.61,4.18C4.04,4.72,4.02,5.62,4.56,6.19l18.71,19.68c0.28,0.29,0.65,0.44,1.03,0.44
		c0.35,0,0.7-0.13,0.98-0.39l0.11-0.11c0.57-0.54,0.59-1.44,0.05-2.01L6.73,4.13C6.45,3.83,6.08,3.68,5.7,3.68L5.7,3.68z"/>
</g>
<g>
	<path class="st0" d="M5.7,25.32c-0.06,0-0.18-0.02-0.29-0.12L5.3,25.09c-0.17-0.16-0.18-0.43-0.02-0.6L23.99,4.82
		c0.11-0.11,0.24-0.13,0.31-0.13c0.06,0,0.19,0.02,0.29,0.12l0.11,0.1c0.17,0.16,0.18,0.43,0.02,0.6L6.01,25.18
		C5.9,25.3,5.77,25.32,5.7,25.32L5.7,25.32z"/>
	<path d="M24.3,3.68c-0.38,0-0.75,0.15-1.03,0.44L4.56,23.81c-0.54,0.57-0.52,1.47,0.05,2.01l0.11,0.11
		C5,26.19,5.35,26.32,5.7,26.32c0.38,0,0.75-0.15,1.03-0.44L25.44,6.19c0.54-0.57,0.52-1.47-0.05-2.01l-0.11-0.11
		C25,3.81,24.65,3.68,24.3,3.68L24.3,3.68z"/>
</g>
</svg>
