<?xml version="1.0" encoding="utf-8"?>
<!-- Generator: Adobe Illustrator 27.1.1, SVG Export Plug-In . SVG Version: 6.00 Build 0)  -->
<svg version="1.1" id="Layer_1" xmlns="http://www.w3.org/2000/svg" xmlns:xlink="http://www.w3.org/1999/xlink" x="0px" y="0px"
	 viewBox="0 0 30 30" style="enable-background:new 0 0 30 30;" xml:space="preserve">
<style type="text/css">
	.st0{fill:#000000;}
</style>
<g>
	<g>
		<path class="st0" d="M1.42,7.25C1.19,7.25,1,7.06,1,6.83V6.67c0-0.23,0.19-0.42,0.42-0.42h27.16c0.23,0,0.42,0.19,0.42,0.42v0.16
			c0,0.23-0.19,0.42-0.42,0.42H1.42z"/>
		<path d="M28.58,5.25H1.42C0.64,5.25,0,5.89,0,6.67v0.16c0,0.79,0.64,1.42,1.42,1.42h27.16c0.79,0,1.42-0.64,1.42-1.42V6.67
			C30,5.89,29.36,5.25,28.58,5.25L28.58,5.25z"/>
	</g>
	<g>
		<path class="st0" d="M1.42,15.5C1.19,15.5,1,15.31,1,15.08v-0.16c0-0.23,0.19-0.42,0.42-0.42h27.16c0.23,0,0.42,0.19,0.42,0.42
			v0.16c0,0.23-0.19,0.42-0.42,0.42H1.42z"/>
		<path d="M28.58,13.5H1.42C0.64,13.5,0,14.14,0,14.92v0.16c0,0.79,0.64,1.42,1.42,1.42h27.16c0.79,0,1.42-0.64,1.42-1.42v-0.16
			C30,14.14,29.36,13.5,28.58,13.5L28.58,13.5z"/>
	</g>
	<g>
		<path class="st0" d="M1.42,23.75C1.19,23.75,1,23.56,1,23.33v-0.16c0-0.23,0.19-0.42,0.42-0.42h27.16c0.23,0,0.42,0.19,0.42,0.42
			v0.16c0,0.23-0.19,0.42-0.42,0.42H1.42z"/>
		<path d="M28.58,21.75H1.42C0.64,21.75,0,22.39,0,23.17v0.16c0,0.79,0.64,1.42,1.42,1.42h27.16c0.79,0,1.42-0.64,1.42-1.42v-0.16
			C30,22.39,29.36,21.75,28.58,21.75L28.58,21.75z"/>
	</g>
</g>
</svg>
